<?xml version="1.0" encoding="utf-8"?>
<!-- Generator: Adobe Illustrator 25.0.0, SVG Export Plug-In . SVG Version: 6.00 Build 0)  -->
<svg version="1.1" id="Camada_2" xmlns="http://www.w3.org/2000/svg" xmlns:xlink="http://www.w3.org/1999/xlink" x="0px" y="0px"
	 viewBox="0 0 1338 350" style="enable-background:new 0 0 1338 350;" xml:space="preserve">
<style type="text/css">
	.st0{fill:#0AABFB;}
	.st1{fill:#FFFFFF;}
</style>
<g id="Camada_4">
	<g>
		<path class="st0" d="M330.9,92.3L69.5,22.1l-2.1-0.5c-4.3-0.9-8.8-0.8-13,0.1C37.1,25.6,26.2,42.6,30,59.9l53.9,244
			c1.1,5,3.4,9.7,6.7,13.7c11.3,13.6,31.5,15.3,45,4l207.5-173.8c5-4.2,8.7-9.9,10.4-16.2C358.1,114.4,348,96.9,330.9,92.3z
			 M300.6,142.5c-1.1,4-3.4,7.6-6.6,10.3L162,263.4c-8.6,7.2-21.4,6.1-28.6-2.5c-2.1-2.5-3.6-5.5-4.3-8.7L94.9,97
			c-2.4-10.9,4.5-21.8,15.5-24.2c2.8-0.6,5.6-0.6,8.3-0.1L120,73l166.2,44.7C297.1,120.5,303.5,131.7,300.6,142.5z"/>
		<path class="st1" d="M544.6,143.9c-12.6,0-21.7,5-27.1,14.6c-5.5-9.6-14.7-14.6-27.1-14.6c-21.2,0-35.8,14.4-35.8,35.3v48.3h26.6
			v-47.6c0-7.8,4.5-13,11.7-13c7.1,0,12,5.3,12,13v47.6H530v-47.6c0-7.8,4.9-13,12-13c7,0,11.7,5.2,11.7,13v47.6h26.6v-48.3
			C580.2,158.2,565.6,143.9,544.6,143.9z"/>
		<path class="st1" d="M627.7,144.1c-7.8,0-15.2,1.3-23.3,4.9V169c6.3-3.4,11.8-5.2,17.7-5.2c12.6,0,20.4,6.8,20.6,17.5
			c-4.5-5.2-11.5-7.9-19.9-7.9c-17.7,0-30.1,11.7-30.1,27.9c0,16.7,12.5,28.4,30.5,28.4c9.2,0,16.2-3.1,20.6-9.2v7.1H668V180
			C668.2,158,653.1,144.1,627.7,144.1z M631.7,211.3c-7.3,0-12.3-4.7-12.3-11.3c0-6.5,5-11,12.3-11s12.3,4.5,12.3,11
			C644,206.6,639,211.3,631.7,211.3z"/>
		<path class="st1" d="M724.2,143.9c-24.5,0-40.7,16-40.7,40.3v43.3h26.6v-43.6c0-10.7,5.2-17,14.1-17s14.1,6.2,14.1,17v43.6h26.6
			v-43.3C764.9,159.9,748.7,143.9,724.2,143.9z"/>
		<path class="st1" d="M822.9,143.9c-26.2,0-45.4,17.8-45.4,42.6c0,23.7,17.5,41.1,41.3,41.1c10.7,0,18.6-3.6,24.9-10.9
			c-0.5,13.6-11.2,23-26.6,23c-7.8,0-15.7-2.6-22.8-7.5l-0.2,23.8c7.3,4.4,15.1,6.5,24.3,6.5c29.6,0,50.2-19.9,50.2-48.9v-24.3
			C868.7,162.7,849.9,143.9,822.9,143.9z M823.7,205.5c-11.2,0-19.3-8.4-19.3-19.9c0-11.5,8.1-19.9,19.3-19.9
			c11.3,0,19.6,8.4,19.6,19.9C843.3,197,835,205.5,823.7,205.5z"/>
		<path class="st1" d="M916.2,144.1c-7.8,0-15.2,1.3-23.3,4.9V169c6.3-3.4,11.8-5.2,17.7-5.2c12.6,0,20.4,6.8,20.6,17.5
			c-4.5-5.2-11.5-7.9-19.9-7.9c-17.7,0-30.1,11.7-30.1,27.9c0,16.7,12.5,28.4,30.5,28.4c9.2,0,16.2-3.1,20.6-9.2v7.1h24.5V180
			C956.7,158,941.6,144.1,916.2,144.1z M920.2,211.3c-7.3,0-12.3-4.7-12.3-11.3c0-6.5,5-11,12.3-11c7.3,0,12.3,4.5,12.3,11
			C932.6,206.6,927.5,211.3,920.2,211.3z"/>
		<path class="st1" d="M997.5,168.7c0-2.8,3.2-4.9,7.9-4.9c6,0,13,2.8,18.3,7v-21.1c-6.2-3.9-13.9-5.8-22.2-5.8
			c-18.5,0-30.9,9.7-30.9,24.8c0,25.6,32.9,24,32.9,33.4c0,3.6-3.7,5.7-10,5.7c-7.8,0-15.9-3.2-21.5-8.4v24.3c7.6,4,15.7,6,24.3,6
			c20.6,0,34.2-11,34.2-27.7C1030.4,174.7,997.5,177.4,997.5,168.7z"/>
		<polygon class="st1" points="1177.6,73.5 1135.4,73.5 1109.4,128.7 1083.3,73.5 1041,73.5 1083.7,148.5 1036.8,227.5 
			1079.1,227.5 1109.2,172.1 1139.4,227.5 1181.4,227.5 1134.7,148.7 		"/>
		<path class="st1" d="M1246.5,73.5H1195v154h37.4v-45.1c6.4,2,13,3.1,20,3.1c32.1,0,56.3-24,56.3-56.1
			C1308.8,96.6,1283.2,73.5,1246.5,73.5z M1246.3,151.8c-5.1,0-9.2-1.1-13.9-3.3V105h12.5c15.2,0,25.5,9.7,25.5,23.8
			C1270.5,142.6,1260.6,151.8,1246.3,151.8z"/>
	</g>
</g>
</svg>
