<?xml version="1.0" encoding="utf-8"?>
<!-- Generator: Adobe Illustrator 25.0.0, SVG Export Plug-In . SVG Version: 6.00 Build 0)  -->
<svg version="1.1" id="Camada_1" xmlns="http://www.w3.org/2000/svg" xmlns:xlink="http://www.w3.org/1999/xlink" x="0px" y="0px"
	 viewBox="0 0 800 800" style="enable-background:new 0 0 800 800;" xml:space="preserve">
<style type="text/css">
	.st0{fill:#0AABFB;}
</style>
<path class="st0" d="M692.2,226.3L142.7,78.7l-4.5-1c-9.1-1.8-18.4-1.7-27.4,0.3c-36.2,8-59.1,43.9-51.1,80.1l113.2,512.9
	c2.3,10.5,7.2,20.4,14.1,28.7c23.8,28.5,66.2,32.2,94.6,8.4l436.2-365.3c10.6-8.9,18.2-20.8,21.8-34.1
	C749.2,272.8,728,235.9,692.2,226.3z M628.4,331.8c-2.3,8.5-7.1,16-13.8,21.7L337.2,585.8c-18.1,15.2-45,12.8-60.2-5.3
	c-4.4-5.3-7.5-11.5-9-18.2l-72-326.1c-5.1-23,9.5-45.8,32.5-50.9c5.8-1.3,11.7-1.3,17.4-0.2l2.9,0.7l349.4,93.9
	C621,285.6,634.5,309.1,628.4,331.8z"/>
</svg>
